<svg xmlns="http://www.w3.org/2000/svg" viewBox="0 0 64 64">
  <defs>
    <filter id="shadow" x="-20%" y="-20%" width="140%" height="140%">
      <feDropShadow dx="0" dy="1" stdDeviation="1" flood-color="#000" flood-opacity="0.12"/>
    </filter>
  </defs>
  <g filter="url(#shadow)">
    <path d="M32 8c6.2 8.7 9 15.7 9 22 0 9.5-9 16-9 16s-9-6.5-9-16c0-6.3 2.8-13.3 9-22z" fill="#d6336c"/>
    <path d="M10 24c0 2.3.6 4.4 2.3 6.5 3.5 4.6 9.4 8.2 19.7 7.6-4.9-7.1-10.7-11.8-22-14.1z" fill="#d6336c"/>
    <path d="M54 24c-11.3 2.3-17.1 7-22 14.1 10.3.6 16.2-3 19.7-7.6 1.7-2.1 2.3-4.2 2.3-6.5z" fill="#d6336c"/>
    <ellipse cx="32" cy="48" rx="12" ry="4" fill="#d6336c" opacity="0.15"/>
  </g>
</svg>

